<?xml version="1.0" encoding="UTF-8" standalone="no"?>
<!DOCTYPE svg PUBLIC "-//W3C//DTD SVG 1.1//EN"
 "http://www.w3.org/Graphics/SVG/1.1/DTD/svg11.dtd">
<!-- Generated by graphviz version 15.0.0 (20260523.1842)
 -->
<!-- Title: QPSK_Modulation Pages: 1 -->
<svg width="851pt" height="652pt"
 viewBox="0.00 0.00 851.00 652.00" xmlns="http://www.w3.org/2000/svg" xmlns:xlink="http://www.w3.org/1999/xlink">
<g id="graph0" class="graph" transform="scale(1 1) rotate(0) translate(4 648)">
<title>QPSK_Modulation</title>
<polygon fill="white" stroke="none" points="-4,4 -4,-648 847.4,-648 847.4,4 -4,4"/>
<g id="clust1" class="cluster">
<title>cluster_frame</title>
<polygon fill="#f4f6f6" stroke="black" stroke-dasharray="5,2" points="158.4,-561.5 158.4,-636 512.4,-636 512.4,-561.5 158.4,-561.5"/>
<text xml:space="preserve" text-anchor="middle" x="335.4" y="-623.45" font-family="Helvetica,sans-Serif" font-size="9.00">一帧结构</text>
</g>
<g id="clust2" class="cluster">
<title>cluster_legend</title>
<polygon fill="#f4f6f6" stroke="black" stroke-dasharray="5,2" points="520.4,-562 520.4,-635.5 835.4,-635.5 835.4,-562 520.4,-562"/>
<text xml:space="preserve" text-anchor="middle" x="677.9" y="-622.95" font-family="Helvetica,sans-Serif" font-size="9.00">图例</text>
</g>
<!-- basedata -->
<g id="node1" class="node">
<title>basedata</title>
<polygon fill="#e8e8e8" stroke="black" stroke-width="1.2" points="52.8,-600 0,-600 0,-576 52.8,-576 64.8,-588 52.8,-600"/>
<text xml:space="preserve" text-anchor="middle" x="32.4" y="-591.08" font-family="Helvetica,sans-Serif" font-size="9.00">base_data</text>
<text xml:space="preserve" text-anchor="middle" x="32.4" y="-581.33" font-family="Helvetica,sans-Serif" font-size="9.00">(字符串)</text>
</g>
<!-- s1 -->
<g id="node4" class="node">
<title>s1</title>
<path fill="#d4e6f1" stroke="black" stroke-width="1.2" d="M126.2,-547.5C126.2,-547.5 20.6,-547.5 20.6,-547.5 14.6,-547.5 8.6,-541.5 8.6,-535.5 8.6,-535.5 8.6,-484 8.6,-484 8.6,-478 14.6,-472 20.6,-472 20.6,-472 126.2,-472 126.2,-472 132.2,-472 138.2,-478 138.2,-484 138.2,-484 138.2,-535.5 138.2,-535.5 138.2,-541.5 132.2,-547.5 126.2,-547.5"/>
<text xml:space="preserve" text-anchor="middle" x="73.4" y="-534" font-family="Helvetica,sans-Serif" font-size="10.00">1. 生成数据组</text>
<text xml:space="preserve" text-anchor="middle" x="73.4" y="-519" font-family="Helvetica,sans-Serif" font-size="10.00">──────────</text>
<text xml:space="preserve" text-anchor="middle" x="73.4" y="-507.75" font-family="Helvetica,sans-Serif" font-size="10.00">burst_time 组</text>
<text xml:space="preserve" text-anchor="middle" x="73.4" y="-492.75" font-family="Helvetica,sans-Serif" font-size="10.00">base_data + {:03d} + \n</text>
<text xml:space="preserve" text-anchor="middle" x="73.4" y="-481.5" font-family="Helvetica,sans-Serif" font-size="10.00">编号递增 001,002,…</text>
</g>
<!-- basedata&#45;&gt;s1 -->
<g id="edge1" class="edge">
<title>basedata&#45;&gt;s1</title>
<path fill="none" stroke="black" d="M41.7,-569.7C43.67,-566.04 45.84,-562.01 48.08,-557.83"/>
<polygon fill="black" stroke="black" points="51.05,-559.71 52.7,-549.24 44.88,-556.39 51.05,-559.71"/>
</g>
<!-- burst -->
<g id="node2" class="node">
<title>burst</title>
<polygon fill="#e8e8e8" stroke="black" stroke-width="1.2" points="135.8,-600 83,-600 83,-576 135.8,-576 147.8,-588 135.8,-600"/>
<text xml:space="preserve" text-anchor="middle" x="115.4" y="-591.08" font-family="Helvetica,sans-Serif" font-size="9.00">burst_time</text>
<text xml:space="preserve" text-anchor="middle" x="115.4" y="-581.33" font-family="Helvetica,sans-Serif" font-size="9.00">(重复组数)</text>
</g>
<!-- burst&#45;&gt;s1 -->
<g id="edge2" class="edge">
<title>burst&#45;&gt;s1</title>
<path fill="none" stroke="black" d="M105.87,-569.7C103.85,-566.04 101.64,-562.01 99.33,-557.83"/>
<polygon fill="black" stroke="black" points="102.49,-556.3 94.6,-549.23 96.36,-559.68 102.49,-556.3"/>
</g>
<!-- params -->
<g id="node3" class="node">
<title>params</title>
<polygon fill="#e8e8e8" stroke="black" stroke-width="1.2" points="329.77,-209.75 271.02,-209.75 271.02,-185.75 329.77,-185.75 341.77,-197.75 329.77,-209.75"/>
<text xml:space="preserve" text-anchor="middle" x="306.4" y="-200.82" font-family="Helvetica,sans-Serif" font-size="9.00">调制参数</text>
<text xml:space="preserve" text-anchor="middle" x="306.4" y="-187.32" font-family="Helvetica,sans-Serif" font-size="9.00">(α, span, sps)</text>
</g>
<!-- s5 -->
<g id="node10" class="node">
<title>s5</title>
<path fill="#d4e6f1" stroke="black" stroke-width="1.2" d="M300.2,-137.25C300.2,-137.25 194.6,-137.25 194.6,-137.25 188.6,-137.25 182.6,-131.25 182.6,-125.25 182.6,-125.25 182.6,-70 182.6,-70 182.6,-64 188.6,-58 194.6,-58 194.6,-58 300.2,-58 300.2,-58 306.2,-58 312.2,-64 312.2,-70 312.2,-70 312.2,-125.25 312.2,-125.25 312.2,-131.25 306.2,-137.25 300.2,-137.25"/>
<text xml:space="preserve" text-anchor="middle" x="247.4" y="-123.75" font-family="Helvetica,sans-Serif" font-size="10.00">5. RRC 脉冲成型</text>
<text xml:space="preserve" text-anchor="middle" x="247.4" y="-108.75" font-family="Helvetica,sans-Serif" font-size="10.00">──────────</text>
<text xml:space="preserve" text-anchor="middle" x="247.4" y="-97.5" font-family="Helvetica,sans-Serif" font-size="10.00">根升余弦滤波器</text>
<text xml:space="preserve" text-anchor="middle" x="247.4" y="-82.5" font-family="Helvetica,sans-Serif" font-size="10.00">参数: α, span, sps</text>
<text xml:space="preserve" text-anchor="middle" x="247.4" y="-67.5" font-family="Helvetica,sans-Serif" font-size="10.00">连续 IQ 波形输出</text>
</g>
<!-- params&#45;&gt;s5 -->
<g id="edge9" class="edge">
<title>params&#45;&gt;s5</title>
<path fill="none" stroke="#7f8c8d" stroke-dasharray="5,2" d="M295.85,-179.21C290.41,-170.16 283.49,-158.64 276.58,-147.16"/>
<polygon fill="#7f8c8d" stroke="#7f8c8d" points="279.75,-145.64 271.6,-138.87 273.75,-149.25 279.75,-145.64"/>
</g>
<!-- s2 -->
<g id="node5" class="node">
<title>s2</title>
<path fill="#d5f5e3" stroke="black" stroke-width="1.2" d="M126.2,-450C126.2,-450 20.6,-450 20.6,-450 14.6,-450 8.6,-444 8.6,-438 8.6,-438 8.6,-382.75 8.6,-382.75 8.6,-376.75 14.6,-370.75 20.6,-370.75 20.6,-370.75 126.2,-370.75 126.2,-370.75 132.2,-370.75 138.2,-376.75 138.2,-382.75 138.2,-382.75 138.2,-438 138.2,-438 138.2,-444 132.2,-450 126.2,-450"/>
<text xml:space="preserve" text-anchor="middle" x="73.4" y="-436.5" font-family="Helvetica,sans-Serif" font-size="10.00">2. ASCII 编码</text>
<text xml:space="preserve" text-anchor="middle" x="73.4" y="-421.5" font-family="Helvetica,sans-Serif" font-size="10.00">──────────</text>
<text xml:space="preserve" text-anchor="middle" x="73.4" y="-410.25" font-family="Helvetica,sans-Serif" font-size="10.00">每个字符 → 8 bit</text>
<text xml:space="preserve" text-anchor="middle" x="73.4" y="-395.25" font-family="Helvetica,sans-Serif" font-size="10.00">每 2 bit → 1 个</text>
<text xml:space="preserve" text-anchor="middle" x="73.4" y="-380.25" font-family="Helvetica,sans-Serif" font-size="10.00">QPSK 符号 (Gray)</text>
</g>
<!-- s1&#45;&gt;s2 -->
<g id="edge3" class="edge">
<title>s1&#45;&gt;s2</title>
<path fill="none" stroke="black" d="M73.4,-471.66C73.4,-468.38 73.4,-465.03 73.4,-461.67"/>
<polygon fill="black" stroke="black" points="76.9,-461.82 73.4,-451.82 69.9,-461.82 76.9,-461.82"/>
</g>
<!-- s3 -->
<g id="node6" class="node">
<title>s3</title>
<path fill="#d4e6f1" stroke="black" stroke-width="1.2" d="M184.2,-348.75C184.2,-348.75 78.6,-348.75 78.6,-348.75 72.6,-348.75 66.6,-342.75 66.6,-336.75 66.6,-336.75 66.6,-270.25 66.6,-270.25 66.6,-264.25 72.6,-258.25 78.6,-258.25 78.6,-258.25 184.2,-258.25 184.2,-258.25 190.2,-258.25 196.2,-264.25 196.2,-270.25 196.2,-270.25 196.2,-336.75 196.2,-336.75 196.2,-342.75 190.2,-348.75 184.2,-348.75"/>
<text xml:space="preserve" text-anchor="middle" x="131.4" y="-335.25" font-family="Helvetica,sans-Serif" font-size="10.00">3. 插入参考符号</text>
<text xml:space="preserve" text-anchor="middle" x="131.4" y="-320.25" font-family="Helvetica,sans-Serif" font-size="10.00">──────────</text>
<text xml:space="preserve" text-anchor="middle" x="131.4" y="-309" font-family="Helvetica,sans-Serif" font-size="10.00">每 4 个数据符号</text>
<text xml:space="preserve" text-anchor="middle" x="131.4" y="-294" font-family="Helvetica,sans-Serif" font-size="10.00">插入 1 个参考符号</text>
<text xml:space="preserve" text-anchor="middle" x="131.4" y="-279" font-family="Helvetica,sans-Serif" font-size="10.00">ref_seq = [0,1,3,2,…]</text>
<text xml:space="preserve" text-anchor="middle" x="131.4" y="-267.75" font-family="Helvetica,sans-Serif" font-size="10.00">每组独立从头循环</text>
</g>
<!-- s2&#45;&gt;s3 -->
<g id="edge4" class="edge">
<title>s2&#45;&gt;s3</title>
<path fill="none" stroke="black" d="M95,-370.32C97.02,-366.67 99.09,-362.93 101.17,-359.17"/>
<polygon fill="black" stroke="black" points="104.15,-361.01 105.93,-350.56 98.02,-357.62 104.15,-361.01"/>
</g>
<!-- s4 -->
<g id="node8" class="node">
<title>s4</title>
<path fill="#d5f5e3" stroke="black" stroke-width="1.2" d="M241.2,-236.25C241.2,-236.25 135.6,-236.25 135.6,-236.25 129.6,-236.25 123.6,-230.25 123.6,-224.25 123.6,-224.25 123.6,-171.25 123.6,-171.25 123.6,-165.25 129.6,-159.25 135.6,-159.25 135.6,-159.25 241.2,-159.25 241.2,-159.25 247.2,-159.25 253.2,-165.25 253.2,-171.25 253.2,-171.25 253.2,-224.25 253.2,-224.25 253.2,-230.25 247.2,-236.25 241.2,-236.25"/>
<text xml:space="preserve" text-anchor="middle" x="188.4" y="-222.75" font-family="Helvetica,sans-Serif" font-size="10.00">4. 添加前导码</text>
<text xml:space="preserve" text-anchor="middle" x="188.4" y="-207.75" font-family="Helvetica,sans-Serif" font-size="10.00">──────────</text>
<text xml:space="preserve" text-anchor="middle" x="188.4" y="-196.5" font-family="Helvetica,sans-Serif" font-size="10.00">63 符号 BPSK</text>
<text xml:space="preserve" text-anchor="middle" x="188.4" y="-181.5" font-family="Helvetica,sans-Serif" font-size="10.00">m 序列</text>
<text xml:space="preserve" text-anchor="middle" x="188.4" y="-166.5" font-family="Helvetica,sans-Serif" font-size="10.00">(1→1+1j, &#45;1→&#45;1&#45;1j)</text>
</g>
<!-- s3&#45;&gt;s4 -->
<g id="edge6" class="edge">
<title>s3&#45;&gt;s4</title>
<path fill="none" stroke="black" d="M155.9,-257.9C157.96,-254.16 160.04,-250.38 162.1,-246.62"/>
<polygon fill="black" stroke="black" points="165.02,-248.57 166.77,-238.12 158.89,-245.2 165.02,-248.57"/>
</g>
<!-- refseq -->
<g id="node7" class="node">
<title>refseq</title>
<polygon fill="#f9e79f" stroke="black" stroke-width="1.2" points="212.6,-430.88 156.2,-430.88 156.2,-389.88 212.6,-389.88 224.6,-410.38 212.6,-430.88"/>
<text xml:space="preserve" text-anchor="middle" x="190.4" y="-425.27" font-family="Helvetica,sans-Serif" font-size="8.00">ref_seq</text>
<text xml:space="preserve" text-anchor="middle" x="190.4" y="-416.27" font-family="Helvetica,sans-Serif" font-size="8.00">16 符号循环</text>
<text xml:space="preserve" text-anchor="middle" x="190.4" y="-404.27" font-family="Helvetica,sans-Serif" font-size="8.00">Gray 映射后</text>
<text xml:space="preserve" text-anchor="middle" x="190.4" y="-392.27" font-family="Helvetica,sans-Serif" font-size="8.00">QPSK 符号</text>
</g>
<!-- refseq&#45;&gt;s3 -->
<g id="edge5" class="edge">
<title>refseq&#45;&gt;s3</title>
<path fill="none" stroke="#7f8c8d" stroke-dasharray="5,2" d="M175.82,-383.45C171.65,-376.04 166.94,-367.67 162.18,-359.22"/>
<polygon fill="#7f8c8d" stroke="#7f8c8d" points="165.31,-357.63 157.35,-350.64 159.21,-361.07 165.31,-357.63"/>
</g>
<!-- s4&#45;&gt;s5 -->
<g id="edge8" class="edge">
<title>s4&#45;&gt;s5</title>
<path fill="none" stroke="black" d="M211.21,-158.81C213.48,-155.04 215.81,-151.17 218.13,-147.3"/>
<polygon fill="black" stroke="black" points="220.94,-149.43 223.09,-139.06 214.94,-145.82 220.94,-149.43"/>
</g>
<!-- preamble -->
<g id="node9" class="node">
<title>preamble</title>
<polygon fill="#f9e79f" stroke="black" stroke-width="1.2" points="266.8,-316.5 214,-316.5 214,-290.5 266.8,-290.5 278.8,-303.5 266.8,-316.5"/>
<text xml:space="preserve" text-anchor="middle" x="246.4" y="-310.9" font-family="Helvetica,sans-Serif" font-size="8.00">preamble</text>
<text xml:space="preserve" text-anchor="middle" x="246.4" y="-301.9" font-family="Helvetica,sans-Serif" font-size="8.00">63 符号</text>
<text xml:space="preserve" text-anchor="middle" x="246.4" y="-289.9" font-family="Helvetica,sans-Serif" font-size="8.00">BPSK</text>
</g>
<!-- preamble&#45;&gt;s4 -->
<g id="edge7" class="edge">
<title>preamble&#45;&gt;s4</title>
<path fill="none" stroke="#7f8c8d" stroke-dasharray="5,2" d="M236.03,-283.95C230.16,-273.45 222.53,-259.8 215.1,-246.51"/>
<polygon fill="#7f8c8d" stroke="#7f8c8d" points="218.16,-244.82 210.23,-237.8 212.05,-248.23 218.16,-244.82"/>
</g>
<!-- output -->
<g id="node11" class="node">
<title>output</title>
<polygon fill="#fdebd0" stroke="black" stroke-width="1.2" points="284.6,-36 204.2,-36 204.2,0 290.6,0 290.6,-30 284.6,-36"/>
<polyline fill="none" stroke="black" stroke-width="1.2" points="284.6,-36 284.6,-30"/>
<polyline fill="none" stroke="black" stroke-width="1.2" points="290.6,-30 284.6,-30"/>
<text xml:space="preserve" text-anchor="middle" x="247.4" y="-21.62" font-family="Helvetica,sans-Serif" font-size="10.00">IQ 采样信号</text>
<text xml:space="preserve" text-anchor="middle" x="247.4" y="-6.62" font-family="Helvetica,sans-Serif" font-size="10.00">(.mat / .dat)</text>
</g>
<!-- s5&#45;&gt;output -->
<g id="edge10" class="edge">
<title>s5&#45;&gt;output</title>
<path fill="none" stroke="black" d="M247.4,-57.81C247.4,-54.38 247.4,-50.94 247.4,-47.62"/>
<polygon fill="black" stroke="black" points="250.9,-47.74 247.4,-37.74 243.9,-47.74 250.9,-47.74"/>
</g>
<!-- frame -->
<g id="node12" class="node">
<title>frame</title>
<polygon fill="none" stroke="black" stroke-width="1.2" points="166.02,-570 166.02,-606 504.77,-606 504.77,-570 166.02,-570"/>
<text xml:space="preserve" text-anchor="middle" x="199.52" y="-584.9" font-family="Helvetica,sans-Serif" font-size="8.00">preamble (63)</text>
<polyline fill="none" stroke="black" stroke-width="1.2" points="233.02,-570 233.02,-606"/>
<text xml:space="preserve" text-anchor="middle" x="268.77" y="-584.9" font-family="Helvetica,sans-Serif" font-size="8.00">symbol_map(1)</text>
<polyline fill="none" stroke="black" stroke-width="1.2" points="304.52,-570 304.52,-606"/>
<text xml:space="preserve" text-anchor="middle" x="340.27" y="-584.9" font-family="Helvetica,sans-Serif" font-size="8.00">symbol_map(2)</text>
<polyline fill="none" stroke="black" stroke-width="1.2" points="376.02,-570 376.02,-606"/>
<text xml:space="preserve" text-anchor="middle" x="388.15" y="-584.9" font-family="Helvetica,sans-Serif" font-size="8.00">…</text>
<polyline fill="none" stroke="black" stroke-width="1.2" points="400.27,-570 400.27,-606"/>
<text xml:space="preserve" text-anchor="middle" x="452.52" y="-584.9" font-family="Helvetica,sans-Serif" font-size="8.00">symbol_map(burst_time)</text>
</g>
<!-- l1 -->
<g id="node13" class="node">
<title>l1</title>
<path fill="#d4e6f1" stroke="black" stroke-width="1.2" d="M578,-606C578,-606 540.8,-606 540.8,-606 534.8,-606 528.8,-600 528.8,-594 528.8,-594 528.8,-582 528.8,-582 528.8,-576 534.8,-570 540.8,-570 540.8,-570 578,-570 578,-570 584,-570 590,-576 590,-582 590,-582 590,-594 590,-594 590,-600 584,-606 578,-606"/>
<text xml:space="preserve" text-anchor="middle" x="559.4" y="-586.2" font-family="Helvetica,sans-Serif" font-size="9.00">数据处理</text>
</g>
<!-- l2 -->
<g id="node14" class="node">
<title>l2</title>
<path fill="#d5f5e3" stroke="black" stroke-width="1.2" d="M657,-606C657,-606 619.8,-606 619.8,-606 613.8,-606 607.8,-600 607.8,-594 607.8,-594 607.8,-582 607.8,-582 607.8,-576 613.8,-570 619.8,-570 619.8,-570 657,-570 657,-570 663,-570 669,-576 669,-582 669,-582 669,-594 669,-594 669,-600 663,-606 657,-606"/>
<text xml:space="preserve" text-anchor="middle" x="638.4" y="-586.2" font-family="Helvetica,sans-Serif" font-size="9.00">编码映射</text>
</g>
<!-- l3 -->
<g id="node15" class="node">
<title>l3</title>
<polygon fill="#f9e79f" stroke="black" stroke-width="1.2" points="736,-600 686.8,-600 686.8,-576 736,-576 748,-588 736,-600"/>
<text xml:space="preserve" text-anchor="middle" x="717.4" y="-586.2" font-family="Helvetica,sans-Serif" font-size="9.00">已知序列</text>
</g>
<!-- l4 -->
<g id="node16" class="node">
<title>l4</title>
<polygon fill="#fdebd0" stroke="black" stroke-width="1.2" points="821,-606 765.8,-606 765.8,-570 827,-570 827,-600 821,-606"/>
<polyline fill="none" stroke="black" stroke-width="1.2" points="821,-606 821,-600"/>
<polyline fill="none" stroke="black" stroke-width="1.2" points="827,-600 821,-600"/>
<text xml:space="preserve" text-anchor="middle" x="796.4" y="-586.2" font-family="Helvetica,sans-Serif" font-size="9.00">输出</text>
</g>
</g>
</svg>
