<?xml version="1.0" encoding="UTF-8" standalone="no"?>
<!DOCTYPE svg PUBLIC "-//W3C//DTD SVG 1.1//EN"
 "http://www.w3.org/Graphics/SVG/1.1/DTD/svg11.dtd">
<!-- Generated by graphviz version 15.0.0 (20260523.1842)
 -->
<!-- Title: QPSK_Demodulator Pages: 1 -->
<svg width="663pt" height="377pt"
 viewBox="0.00 0.00 663.00 377.00" xmlns="http://www.w3.org/2000/svg" xmlns:xlink="http://www.w3.org/1999/xlink">
<g id="graph0" class="graph" transform="scale(1 1) rotate(0) translate(4 372.78)">
<title>QPSK_Demodulator</title>
<polygon fill="white" stroke="none" points="-4,4 -4,-372.78 659.02,-372.78 659.02,4 -4,4"/>
<!-- input -->
<g id="node1" class="node">
<title>input</title>
<polygon fill="#e8e8e8" stroke="black" points="56.76,-362.78 14.76,-362.78 14.76,-338.78 56.76,-338.78 68.76,-350.78 56.76,-362.78"/>
<text xml:space="preserve" text-anchor="middle" x="41.76" y="-353.68" font-family="Helvetica,sans-Serif" font-size="8.00">.dat 文件</text>
<text xml:space="preserve" text-anchor="middle" x="41.76" y="-341.68" font-family="Helvetica,sans-Serif" font-size="8.00">IQIQ uint8</text>
</g>
<!-- s1 -->
<g id="node3" class="node">
<title>s1</title>
<path fill="#d4e6f1" stroke="black" d="M71.52,-304.65C71.52,-304.65 12,-304.65 12,-304.65 6,-304.65 0,-298.65 0,-292.65 0,-292.65 0,-276.39 0,-276.39 0,-270.39 6,-264.39 12,-264.39 12,-264.39 71.52,-264.39 71.52,-264.39 77.52,-264.39 83.52,-270.39 83.52,-276.39 83.52,-276.39 83.52,-292.65 83.52,-292.65 83.52,-298.65 77.52,-304.65 71.52,-304.65"/>
<text xml:space="preserve" text-anchor="middle" x="41.76" y="-293.22" font-family="Helvetica,sans-Serif" font-size="9.00">1. 输入加载</text>
<text xml:space="preserve" text-anchor="middle" x="41.76" y="-279.72" font-family="Helvetica,sans-Serif" font-size="9.00">────────</text>
<text xml:space="preserve" text-anchor="middle" x="41.76" y="-269.97" font-family="Helvetica,sans-Serif" font-size="9.00">uint8→complex</text>
</g>
<!-- input&#45;&gt;s1 -->
<g id="edge1" class="edge">
<title>input&#45;&gt;s1</title>
<path fill="none" stroke="black" d="M35.7,-332.56C35.2,-327.53 34.97,-321.87 35.02,-316.27"/>
<polygon fill="black" stroke="black" points="38.5,-316.71 35.43,-306.57 31.51,-316.42 38.5,-316.71"/>
</g>
<!-- input&#45;&gt;s1 -->
<!-- yaml -->
<g id="node2" class="node">
<title>yaml</title>
<polygon fill="#e8e8e8" stroke="black" points="174.77,-362.78 86.75,-362.78 86.75,-338.78 174.77,-338.78 186.77,-350.78 174.77,-362.78"/>
<text xml:space="preserve" text-anchor="middle" x="136.76" y="-353.68" font-family="Helvetica,sans-Serif" font-size="8.00">YAML 配置</text>
<text xml:space="preserve" text-anchor="middle" x="136.76" y="-341.68" font-family="Helvetica,sans-Serif" font-size="8.00">span sps alpha basedata</text>
</g>
<!-- yaml&#45;&gt;s1 -->
<!-- s4 -->
<g id="node6" class="node">
<title>s4</title>
<path fill="#d5f5e3" stroke="black" d="M149.52,-227.14C149.52,-227.14 90,-227.14 90,-227.14 84,-227.14 78,-221.14 78,-215.14 78,-215.14 78,-173.38 78,-173.38 78,-167.38 84,-161.38 90,-161.38 90,-161.38 149.52,-161.38 149.52,-161.38 155.52,-161.38 161.52,-167.38 161.52,-173.38 161.52,-173.38 161.52,-215.14 161.52,-215.14 161.52,-221.14 155.52,-227.14 149.52,-227.14"/>
<text xml:space="preserve" text-anchor="middle" x="119.76" y="-215.71" font-family="Helvetica,sans-Serif" font-size="9.00">4. RRC 匹配滤波</text>
<text xml:space="preserve" text-anchor="middle" x="119.76" y="-202.21" font-family="Helvetica,sans-Serif" font-size="9.00">────────</text>
<text xml:space="preserve" text-anchor="middle" x="119.76" y="-192.46" font-family="Helvetica,sans-Serif" font-size="9.00">生成RRC FIR</text>
<text xml:space="preserve" text-anchor="middle" x="119.76" y="-178.96" font-family="Helvetica,sans-Serif" font-size="9.00">(α,span,sps)</text>
<text xml:space="preserve" text-anchor="middle" x="119.76" y="-169.21" font-family="Helvetica,sans-Serif" font-size="9.00">匹配滤波卷积</text>
</g>
<!-- yaml&#45;&gt;s4 -->
<g id="edge14" class="edge">
<title>yaml&#45;&gt;s4</title>
<path fill="none" stroke="#7f8c8d" stroke-dasharray="5,2" d="M133.04,-332.29C131.44,-324.25 129.68,-314.56 128.51,-305.78 125.58,-283.77 123.52,-259.16 122.13,-238.75"/>
<polygon fill="#7f8c8d" stroke="#7f8c8d" points="125.63,-238.54 121.49,-228.79 118.64,-238.99 125.63,-238.54"/>
<text xml:space="preserve" text-anchor="middle" x="152.13" y="-282" font-family="Helvetica,sans-Serif" font-size="7.00">span sps alpha</text>
</g>
<!-- s9 -->
<g id="node11" class="node">
<title>s9</title>
<path fill="#d4e6f1" stroke="black" d="M496.77,-124.63C496.77,-124.63 402.75,-124.63 402.75,-124.63 396.75,-124.63 390.75,-118.63 390.75,-112.63 390.75,-112.63 390.75,-82.88 390.75,-82.88 390.75,-76.88 396.75,-70.88 402.75,-70.88 402.75,-70.88 496.77,-70.88 496.77,-70.88 502.77,-70.88 508.77,-76.88 508.77,-82.88 508.77,-82.88 508.77,-112.63 508.77,-112.63 508.77,-118.63 502.77,-124.63 496.77,-124.63"/>
<text xml:space="preserve" text-anchor="middle" x="449.76" y="-113.2" font-family="Helvetica,sans-Serif" font-size="9.00">9. QPSK解映射与文本恢复</text>
<text xml:space="preserve" text-anchor="middle" x="449.76" y="-99.7" font-family="Helvetica,sans-Serif" font-size="9.00">────────</text>
<text xml:space="preserve" text-anchor="middle" x="449.76" y="-89.95" font-family="Helvetica,sans-Serif" font-size="9.00">Gray→2bit→8bit→ASCII</text>
<text xml:space="preserve" text-anchor="middle" x="449.76" y="-78.7" font-family="Helvetica,sans-Serif" font-size="9.00">正则提取basedata+编号</text>
</g>
<!-- yaml&#45;&gt;s9 -->
<g id="edge15" class="edge">
<title>yaml&#45;&gt;s9</title>
<path fill="none" stroke="#7f8c8d" stroke-dasharray="5,2" d="M187.24,-349.46C262.4,-347.82 398.38,-340.06 430.76,-305.78 473.48,-260.55 467.28,-182.35 458.68,-136.1"/>
<polygon fill="#7f8c8d" stroke="#7f8c8d" points="462.16,-135.67 456.76,-126.56 455.3,-137.05 462.16,-135.67"/>
<text xml:space="preserve" text-anchor="middle" x="475.17" y="-243.62" font-family="Helvetica,sans-Serif" font-size="7.00">basedata</text>
</g>
<!-- s2 -->
<g id="node4" class="node">
<title>s2</title>
<path fill="#d5f5e3" stroke="black" d="M256.52,-305.78C256.52,-305.78 197,-305.78 197,-305.78 191,-305.78 185,-299.78 185,-293.78 185,-293.78 185,-275.27 185,-275.27 185,-269.27 191,-263.27 197,-263.27 197,-263.27 256.52,-263.27 256.52,-263.27 262.52,-263.27 268.52,-269.27 268.52,-275.27 268.52,-275.27 268.52,-293.78 268.52,-293.78 268.52,-299.78 262.52,-305.78 256.52,-305.78"/>
<text xml:space="preserve" text-anchor="middle" x="226.76" y="-294.35" font-family="Helvetica,sans-Serif" font-size="9.00">2. 去直流</text>
<text xml:space="preserve" text-anchor="middle" x="226.76" y="-280.85" font-family="Helvetica,sans-Serif" font-size="9.00">────────</text>
<text xml:space="preserve" text-anchor="middle" x="226.76" y="-271.1" font-family="Helvetica,sans-Serif" font-size="9.00">减去复数均值</text>
</g>
<!-- s1&#45;&gt;s2 -->
<g id="edge2" class="edge">
<title>s1&#45;&gt;s2</title>
<path fill="none" stroke="black" d="M72.89,-305.15C83.23,-310.89 95.09,-316.36 106.76,-319.28 130.47,-325.22 138.05,-325.22 161.76,-319.28 169.1,-317.44 176.52,-314.6 183.58,-311.31"/>
<polygon fill="black" stroke="black" points="184.93,-314.55 192.28,-306.93 181.78,-308.3 184.93,-314.55"/>
</g>
<!-- s3 -->
<g id="node5" class="node">
<title>s3</title>
<path fill="#d4e6f1" stroke="black" d="M409.77,-304.65C409.77,-304.65 315.75,-304.65 315.75,-304.65 309.75,-304.65 303.75,-298.65 303.75,-292.65 303.75,-292.65 303.75,-276.39 303.75,-276.39 303.75,-270.39 309.75,-264.39 315.75,-264.39 315.75,-264.39 409.77,-264.39 409.77,-264.39 415.77,-264.39 421.77,-270.39 421.77,-276.39 421.77,-276.39 421.77,-292.65 421.77,-292.65 421.77,-298.65 415.77,-304.65 409.77,-304.65"/>
<text xml:space="preserve" text-anchor="middle" x="362.76" y="-293.22" font-family="Helvetica,sans-Serif" font-size="9.00">3. 载波频偏估计与矫正</text>
<text xml:space="preserve" text-anchor="middle" x="362.76" y="-279.72" font-family="Helvetica,sans-Serif" font-size="9.00">────────</text>
<text xml:space="preserve" text-anchor="middle" x="362.76" y="-269.97" font-family="Helvetica,sans-Serif" font-size="9.00">x⁴→FFT →Δf→e^(&#45;j2πΔfn)</text>
</g>
<!-- s2&#45;&gt;s3 -->
<g id="edge3" class="edge">
<title>s2&#45;&gt;s3</title>
<path fill="none" stroke="black" d="M268.99,-284.52C276.71,-284.52 284.42,-284.52 292.13,-284.52"/>
<polygon fill="black" stroke="black" points="291.91,-288.03 301.91,-284.53 291.91,-281.03 291.91,-288.03"/>
</g>
<!-- s5 -->
<g id="node7" class="node">
<title>s5</title>
<path fill="#d4e6f1" stroke="black" d="M268.89,-229.02C268.89,-229.02 208.62,-229.02 208.62,-229.02 202.62,-229.02 196.62,-223.02 196.62,-217.02 196.62,-217.02 196.62,-171.51 196.62,-171.51 196.62,-165.51 202.62,-159.51 208.62,-159.51 208.62,-159.51 268.89,-159.51 268.89,-159.51 274.89,-159.51 280.89,-165.51 280.89,-171.51 280.89,-171.51 280.89,-217.02 280.89,-217.02 280.89,-223.02 274.89,-229.02 268.89,-229.02"/>
<text xml:space="preserve" text-anchor="middle" x="238.76" y="-217.59" font-family="Helvetica,sans-Serif" font-size="9.00">5. 最佳采样点选择</text>
<text xml:space="preserve" text-anchor="middle" x="238.76" y="-204.09" font-family="Helvetica,sans-Serif" font-size="9.00">────────</text>
<text xml:space="preserve" text-anchor="middle" x="238.76" y="-194.34" font-family="Helvetica,sans-Serif" font-size="9.00">4个多相分支</text>
<text xml:space="preserve" text-anchor="middle" x="238.76" y="-180.84" font-family="Helvetica,sans-Serif" font-size="9.00">preamble相关峰</text>
<text xml:space="preserve" text-anchor="middle" x="238.76" y="-167.34" font-family="Helvetica,sans-Serif" font-size="9.00">选最强</text>
</g>
<!-- s2&#45;&gt;s5 -->
<!-- s3&#45;&gt;s4 -->
<g id="edge4" class="edge">
<title>s3&#45;&gt;s4</title>
<path fill="none" stroke="black" d="M303.61,-267.64C269.32,-257.81 225.57,-244.18 187.76,-229.02 182.54,-226.93 177.17,-224.6 171.85,-222.16"/>
<polygon fill="black" stroke="black" points="173.63,-219.13 163.1,-218.04 170.65,-225.46 173.63,-219.13"/>
</g>
<!-- s4&#45;&gt;s5 -->
<g id="edge5" class="edge">
<title>s4&#45;&gt;s5</title>
<path fill="none" stroke="black" d="M161.6,-194.26C169.36,-194.26 177.12,-194.26 184.89,-194.26"/>
<polygon fill="black" stroke="black" points="184.75,-197.77 194.75,-194.27 184.75,-190.77 184.75,-197.77"/>
</g>
<!-- s6 -->
<g id="node8" class="node">
<title>s6</title>
<path fill="#d5f5e3" stroke="black" d="M399.14,-229.02C399.14,-229.02 328.38,-229.02 328.38,-229.02 322.38,-229.02 316.38,-223.02 316.38,-217.02 316.38,-217.02 316.38,-171.51 316.38,-171.51 316.38,-165.51 322.38,-159.51 328.38,-159.51 328.38,-159.51 399.14,-159.51 399.14,-159.51 405.14,-159.51 411.14,-165.51 411.14,-171.51 411.14,-171.51 411.14,-217.02 411.14,-217.02 411.14,-223.02 405.14,-229.02 399.14,-229.02"/>
<text xml:space="preserve" text-anchor="middle" x="363.76" y="-217.59" font-family="Helvetica,sans-Serif" font-size="9.00">6. 前导码同步检测</text>
<text xml:space="preserve" text-anchor="middle" x="363.76" y="-204.09" font-family="Helvetica,sans-Serif" font-size="9.00">────────</text>
<text xml:space="preserve" text-anchor="middle" x="363.76" y="-194.34" font-family="Helvetica,sans-Serif" font-size="9.00">63符号归一化互相关</text>
<text xml:space="preserve" text-anchor="middle" x="363.76" y="-180.84" font-family="Helvetica,sans-Serif" font-size="9.00">峰值检测(阈值+间距)</text>
<text xml:space="preserve" text-anchor="middle" x="363.76" y="-167.34" font-family="Helvetica,sans-Serif" font-size="9.00">每帧独立相位选择</text>
</g>
<!-- s5&#45;&gt;s6 -->
<g id="edge6" class="edge">
<title>s5&#45;&gt;s6</title>
<path fill="none" stroke="black" d="M281.24,-194.26C289.04,-194.26 296.83,-194.26 304.63,-194.26"/>
<polygon fill="black" stroke="black" points="304.54,-197.77 314.54,-194.27 304.54,-190.77 304.54,-197.77"/>
</g>
<!-- s8 -->
<g id="node10" class="node">
<title>s8</title>
<path fill="#d5f5e3" stroke="black" d="M342.89,-132.51C342.89,-132.51 246.62,-132.51 246.62,-132.51 240.62,-132.51 234.62,-126.51 234.62,-120.51 234.62,-120.51 234.62,-75 234.62,-75 234.62,-69 240.62,-63 246.62,-63 246.62,-63 342.89,-63 342.89,-63 348.89,-63 354.89,-69 354.89,-75 354.89,-75 354.89,-120.51 354.89,-120.51 354.89,-126.51 348.89,-132.51 342.89,-132.51"/>
<text xml:space="preserve" text-anchor="middle" x="294.76" y="-121.08" font-family="Helvetica,sans-Serif" font-size="9.00">8. 导频辅助信道估计与补偿</text>
<text xml:space="preserve" text-anchor="middle" x="294.76" y="-107.58" font-family="Helvetica,sans-Serif" font-size="9.00">────────</text>
<text xml:space="preserve" text-anchor="middle" x="294.76" y="-97.83" font-family="Helvetica,sans-Serif" font-size="9.00">导频: h=rx/known</text>
<text xml:space="preserve" text-anchor="middle" x="294.76" y="-84.33" font-family="Helvetica,sans-Serif" font-size="9.00">线性插值: 全载荷响应</text>
<text xml:space="preserve" text-anchor="middle" x="294.76" y="-70.83" font-family="Helvetica,sans-Serif" font-size="9.00">补偿: corrected=rx/h</text>
</g>
<!-- s5&#45;&gt;s8 -->
<!-- s7 -->
<g id="node9" class="node">
<title>s7</title>
<path fill="#d4e6f1" stroke="black" d="M186.89,-125.76C186.89,-125.76 108.62,-125.76 108.62,-125.76 102.62,-125.76 96.62,-119.76 96.62,-113.76 96.62,-113.76 96.62,-81.75 96.62,-81.75 96.62,-75.75 102.62,-69.75 108.62,-69.75 108.62,-69.75 186.89,-69.75 186.89,-69.75 192.89,-69.75 198.89,-75.75 198.89,-81.75 198.89,-81.75 198.89,-113.76 198.89,-113.76 198.89,-119.76 192.89,-125.76 186.89,-125.76"/>
<text xml:space="preserve" text-anchor="middle" x="147.76" y="-114.33" font-family="Helvetica,sans-Serif" font-size="9.00">7. 帧长估计与组数计算</text>
<text xml:space="preserve" text-anchor="middle" x="147.76" y="-100.83" font-family="Helvetica,sans-Serif" font-size="9.00">────────</text>
<text xml:space="preserve" text-anchor="middle" x="147.76" y="-91.08" font-family="Helvetica,sans-Serif" font-size="9.00">峰间距中位数→帧长</text>
<text xml:space="preserve" text-anchor="middle" x="147.76" y="-77.58" font-family="Helvetica,sans-Serif" font-size="9.00">组数=(帧长&#45;63)/每组</text>
</g>
<!-- s6&#45;&gt;s7 -->
<g id="edge7" class="edge">
<title>s6&#45;&gt;s7</title>
<path fill="none" stroke="black" d="M316.08,-171.27C307.35,-167.31 298.29,-163.26 289.76,-159.51 261.49,-147.1 254.15,-144.64 225.76,-132.51 220.55,-130.28 215.15,-127.97 209.73,-125.64"/>
<polygon fill="black" stroke="black" points="211.3,-122.5 200.73,-121.75 208.53,-128.93 211.3,-122.5"/>
</g>
<!-- s7&#45;&gt;s8 -->
<g id="edge8" class="edge">
<title>s7&#45;&gt;s8</title>
<path fill="none" stroke="black" d="M199.15,-97.75C207.11,-97.75 215.06,-97.75 223.01,-97.75"/>
<polygon fill="black" stroke="black" points="222.74,-101.26 232.74,-97.76 222.74,-94.26 222.74,-101.26"/>
</g>
<!-- output_burst -->
<g id="node15" class="node">
<title>output_burst</title>
<polygon fill="#fdebd0" stroke="black" points="342.96,-36 298.56,-36 298.56,0 348.96,0 348.96,-30 342.96,-36"/>
<polyline fill="none" stroke="black" points="342.96,-36 342.96,-30"/>
<polyline fill="none" stroke="black" points="348.96,-30 342.96,-30"/>
<text xml:space="preserve" text-anchor="middle" x="323.76" y="-14.9" font-family="Helvetica,sans-Serif" font-size="8.00">burst_time</text>
</g>
<!-- s7&#45;&gt;output_burst -->
<g id="edge13" class="edge">
<title>s7&#45;&gt;output_burst</title>
<path fill="none" stroke="black" stroke-dasharray="5,2" d="M199.14,-74.06C227.73,-61.43 262.59,-46.02 288.16,-34.73"/>
<polygon fill="black" stroke="black" points="289.39,-38.01 297.13,-30.77 286.56,-31.61 289.39,-38.01"/>
</g>
<!-- s8&#45;&gt;s9 -->
<g id="edge9" class="edge">
<title>s8&#45;&gt;s9</title>
<path fill="none" stroke="black" d="M355.31,-97.75C363.16,-97.75 371.01,-97.75 378.86,-97.75"/>
<polygon fill="black" stroke="black" points="378.84,-101.26 388.84,-97.76 378.84,-94.26 378.84,-101.26"/>
</g>
<!-- s10 -->
<g id="node12" class="node">
<title>s10</title>
<path fill="#d5f5e3" stroke="black" d="M643.02,-132.51C643.02,-132.51 556.5,-132.51 556.5,-132.51 550.5,-132.51 544.5,-126.51 544.5,-120.51 544.5,-120.51 544.5,-75 544.5,-75 544.5,-69 550.5,-63 556.5,-63 556.5,-63 643.02,-63 643.02,-63 649.02,-63 655.02,-69 655.02,-75 655.02,-75 655.02,-120.51 655.02,-120.51 655.02,-126.51 649.02,-132.51 643.02,-132.51"/>
<text xml:space="preserve" text-anchor="middle" x="599.76" y="-121.08" font-family="Helvetica,sans-Serif" font-size="9.00">10. 误码率统计</text>
<text xml:space="preserve" text-anchor="middle" x="599.76" y="-107.58" font-family="Helvetica,sans-Serif" font-size="9.00">────────</text>
<text xml:space="preserve" text-anchor="middle" x="599.76" y="-97.83" font-family="Helvetica,sans-Serif" font-size="9.00">多数投票→base_data</text>
<text xml:space="preserve" text-anchor="middle" x="599.76" y="-84.33" font-family="Helvetica,sans-Serif" font-size="9.00">重构期望比特→逐位比对</text>
<text xml:space="preserve" text-anchor="middle" x="599.76" y="-70.83" font-family="Helvetica,sans-Serif" font-size="9.00">BER=误比特/总比特</text>
</g>
<!-- s9&#45;&gt;s10 -->
<g id="edge10" class="edge">
<title>s9&#45;&gt;s10</title>
<path fill="none" stroke="black" d="M509.23,-97.75C517.07,-97.75 524.91,-97.75 532.75,-97.75"/>
<polygon fill="black" stroke="black" points="532.73,-101.26 542.73,-97.76 532.73,-94.26 532.73,-101.26"/>
</g>
<!-- output_text -->
<g id="node13" class="node">
<title>output_text</title>
<polygon fill="#fdebd0" stroke="black" points="467.16,-36 426.36,-36 426.36,0 473.16,0 473.16,-30 467.16,-36"/>
<polyline fill="none" stroke="black" points="467.16,-36 467.16,-30"/>
<polyline fill="none" stroke="black" points="473.16,-30 467.16,-30"/>
<text xml:space="preserve" text-anchor="middle" x="449.76" y="-16.4" font-family="Helvetica,sans-Serif" font-size="8.00">载荷文本</text>
</g>
<!-- s9&#45;&gt;output_text -->
<g id="edge11" class="edge">
<title>s9&#45;&gt;output_text</title>
<path fill="none" stroke="black" d="M449.76,-70.43C449.76,-63.12 449.76,-55.14 449.76,-47.7"/>
<polygon fill="black" stroke="black" points="453.26,-47.77 449.76,-37.77 446.26,-47.77 453.26,-47.77"/>
</g>
<!-- s9&#45;&gt;output_burst -->
<!-- output_ber -->
<g id="node14" class="node">
<title>output_ber</title>
<polygon fill="#fdebd0" stroke="black" points="620.14,-36 573.38,-36 573.38,0 626.14,0 626.14,-30 620.14,-36"/>
<polyline fill="none" stroke="black" points="620.14,-36 620.14,-30"/>
<polyline fill="none" stroke="black" points="626.14,-30 620.14,-30"/>
<text xml:space="preserve" text-anchor="middle" x="599.76" y="-16.4" font-family="Helvetica,sans-Serif" font-size="8.00">BER误码率</text>
</g>
<!-- s10&#45;&gt;output_ber -->
<g id="edge12" class="edge">
<title>s10&#45;&gt;output_ber</title>
<path fill="none" stroke="black" d="M599.76,-62.88C599.76,-57.86 599.76,-52.74 599.76,-47.84"/>
<polygon fill="black" stroke="black" points="603.26,-47.84 599.76,-37.84 596.26,-47.84 603.26,-47.84"/>
</g>
</g>
</svg>
